<svg id="Layer_1" data-name="Layer 1" xmlns="http://www.w3.org/2000/svg" viewBox="0 0 239.28 46.82"><title>logo</title><polygon points="0 9.78 15.04 9.78 15.04 38.23 25.45 38.23 25.45 9.78 40.49 9.78 40.49 0.65 0 0.65 0 9.78"/><path d="M98.22,36.91H71.89V74.5H82.3V62.71h7.31L93.45,74.5h16.44V66.4h-8.74l-1.23-3.8a12.9,12.9,0,0,0-1.7-25.69ZM96.87,54.33H82.3V45.16H96.87a4.59,4.59,0,1,1,0,9.17Z" transform="translate(-22.03 -36.26)"/><path d="M133.9,36.91,118,74.5h11l2.69-6.71h20.44l2.68,6.71h11L149.84,36.91Zm.81,22.77L140.16,46h3.42L149,59.68Z" transform="translate(-22.03 -36.26)"/><path d="M245.42,36.91H229.48L213.59,74.5h10.95l2.69-6.71h20.44l2.68,6.71h11ZM230.29,59.68,235.74,46h3.41l5.46,13.73Z" transform="translate(-22.03 -36.26)"/><path d="M189.72,45.88h3.09a9.85,9.85,0,0,1,7.62,3.78L208,43.75a19.26,19.26,0,0,0-15.21-7.49h-3.09a19.44,19.44,0,0,0-3.54,38.55v8.27h10V74.82A19.25,19.25,0,0,0,208,67.65l-7.59-5.91a9.74,9.74,0,0,1-7.62,3.78h-3.09a9.82,9.82,0,1,1,0-19.64Z" transform="translate(-22.03 -36.26)"/></svg>